<?xml version="1.0" standalone="no"?>
<!DOCTYPE svg PUBLIC "-//W3C//DTD SVG 20010904//EN"
 "http://www.w3.org/TR/2001/REC-SVG-20010904/DTD/svg10.dtd">
<svg version="1.0" xmlns="http://www.w3.org/2000/svg"
 width="700.000000pt" height="700.000000pt" viewBox="0 0 700.000000 700.000000"
 preserveAspectRatio="xMidYMid meet">
<metadata>
Created by potrace 1.11, written by Peter Selinger 2001-2013
</metadata>
<g transform="translate(0.000000,700.000000) scale(0.100000,-0.100000)"
fill="#000000" stroke="none">
<path d="M3378 6415 c-2 -2 -43 -5 -93 -8 -153 -10 -272 -28 -522 -82 -75 -17
-345 -114 -461 -167 -159 -72 -398 -208 -477 -270 -5 -4 -44 -33 -85 -64 -41
-31 -77 -58 -79 -60 -2 -2 35 -72 83 -155 49 -84 97 -168 108 -188 11 -20 35
-61 53 -91 18 -30 44 -75 57 -100 14 -25 65 -112 113 -195 48 -82 97 -168 110
-190 12 -22 62 -110 111 -195 50 -85 166 -287 259 -447 144 -250 170 -290 180
-275 6 9 73 123 147 252 75 129 147 255 162 280 14 25 46 81 71 125 25 44 50
87 55 95 11 18 99 170 127 220 47 84 257 447 272 470 8 14 23 39 32 55 9 17
132 230 273 474 141 244 255 445 254 447 -4 3 -214 41 -268 48 -121 15 -172
18 -320 20 -88 2 -161 2 -162 1z"/>
<path d="M4512 6188 c-17 -28 -281 -484 -333 -575 -10 -17 -145 -251 -300
-520 -155 -268 -293 -508 -307 -533 -14 -25 -43 -74 -64 -109 -21 -35 -36 -67
-32 -70 8 -8 2804 -8 2804 1 0 11 -64 183 -100 268 -54 129 -158 320 -256 465
-281 421 -657 754 -1110 984 -101 51 -259 121 -274 121 -5 0 -17 -15 -28 -32z"/>
<path d="M1304 5414 c-199 -229 -351 -471 -487 -775 -65 -143 -150 -417 -177
-566 -6 -35 -13 -73 -15 -85 -44 -248 -52 -586 -20 -858 11 -86 35 -204 44
-210 11 -6 2159 -5 2166 2 5 4 -23 58 -86 163 -16 28 -34 59 -39 70 -6 11 -14
27 -20 35 -5 8 -55 94 -110 190 -55 96 -104 182 -109 190 -5 8 -62 107 -127
220 -65 113 -143 248 -174 300 -31 52 -68 115 -82 140 -14 25 -161 281 -328
570 -167 289 -322 558 -345 598 l-42 72 -49 -56z"/>
<path d="M4180 4079 c0 -4 88 -159 196 -345 108 -187 208 -359 222 -384 30
-53 146 -255 334 -580 75 -129 228 -395 340 -590 350 -607 370 -640 377 -640
9 0 34 29 136 155 155 193 298 430 400 667 46 107 117 314 136 398 6 25 13 54
16 65 11 40 51 259 57 308 26 213 26 531 1 727 -12 90 -35 213 -40 218 -8 8
-2175 8 -2175 1z"/>
<path d="M4195 2953 c-44 -76 -84 -146 -90 -155 -5 -10 -58 -101 -117 -203
-60 -102 -108 -190 -108 -195 0 -4 -4 -10 -8 -12 -4 -1 -38 -57 -76 -123 -38
-66 -77 -134 -87 -152 -15 -26 -199 -346 -265 -460 -220 -379 -314 -543 -335
-581 -14 -26 -74 -129 -132 -229 -59 -101 -107 -185 -107 -187 0 -2 15 -6 33
-10 17 -3 54 -10 80 -16 26 -5 69 -12 95 -16 25 -3 58 -8 72 -10 175 -23 592
-23 705 1 11 2 43 7 70 10 28 3 59 8 70 10 24 6 68 14 110 21 17 3 54 12 84
21 29 8 59 16 65 17 6 2 31 8 56 15 332 94 672 265 960 484 71 54 77 62 62 80
-5 7 -19 28 -30 47 -56 101 -705 1226 -712 1235 -4 6 -20 33 -35 60 -47 85
-268 470 -274 477 -4 4 -43 -54 -86 -129z"/>
<path d="M727 2600 c12 -56 110 -293 169 -410 227 -454 564 -828 1030 -1143
22 -15 43 -27 47 -27 3 0 25 -13 49 -29 50 -33 271 -144 371 -186 41 -17 71
-25 77 -19 7 7 234 397 314 539 13 22 90 155 171 295 81 140 159 275 172 299
14 24 89 154 167 290 164 282 236 409 236 413 0 2 -632 3 -1405 3 l-1404 0 6
-25z"/>
</g>
</svg>
